<?xml version="1.0" encoding="utf-8"?>
<!-- Generator: Adobe Illustrator 21.0.0, SVG Export Plug-In . SVG Version: 6.00 Build 0)  -->
<svg version="1.1" id="Layer_1" xmlns="http://www.w3.org/2000/svg" xmlns:xlink="http://www.w3.org/1999/xlink" x="0px" y="0px"
	 viewBox="0 0 245.8 52" style="enable-background:new 0 0 245.8 52;" xml:space="preserve">
<style type="text/css">
	.st0{fill:#EC1C24;}
	.st1{fill:#005AA9;}
</style>
<g>
	<path class="st0" d="M196.1,5.8c0.1-0.1,0.2-0.2,0.3-0.2c0.2,0,0.3,0.1,0.3,0.3c0,0.1-0.1,0.2-0.2,0.3c-4.2,5.2-7.3,11.3-7.3,19.8
		c0,8.5,3.1,14.4,7.3,19.7c0.1,0.1,0.2,0.2,0.2,0.3c0,0.2-0.1,0.3-0.3,0.3c-0.1,0-0.2,0-0.3-0.2l-17.9-17.3
		c-0.9-0.8-1.5-1.7-1.5-2.9c0-1.3,0.6-2.2,1.5-2.9L196.1,5.8z"/>
	<path class="st1" d="M209.8,4.3c-7,0-9.7,9.9-9.7,21.8c0,11.8,2.7,21.6,9.7,21.6c4.2,0,7.8-2.5,7.8-4.5c0-0.4-0.2-0.9-0.5-1.2
		c-2-1.9-2.8-3.8-2.8-5.5c0-3.2,2.8-5.7,5.4-5.7c3.6,0,5.7,2.8,5.7,6.4c0,3.4-1.5,6.3-3.1,8.6c-0.1,0.1-0.1,0.2-0.1,0.3
		c0,0.2,0.1,0.3,0.3,0.3c0.1,0,0.2-0.1,0.3-0.2l17.9-17.3c0.9-0.8,1.5-1.7,1.5-2.9c0-1.3-0.6-2.2-1.5-2.9L222.8,5.8
		c-0.1-0.1-0.2-0.2-0.3-0.2c-0.2,0-0.3,0.2-0.3,0.3c0,0.1,0,0.2,0.1,0.3c1.6,2.3,3.1,5.2,3.1,8.6c0,3.6-2.1,6.4-5.7,6.4
		c-2.6,0-5.4-2.4-5.4-5.7c0-1.7,0.8-3.6,2.8-5.5c0.4-0.4,0.5-0.8,0.5-1.2C217.6,6.8,214,4.3,209.8,4.3"/>
	<path class="st1" d="M7.2,35.8c-2.2-2.3-3.6-5.6-3.6-9.7c0-3.9,1.4-7.2,3.6-9.6c2.2-2.3,5.1-3.7,8.2-3.7c5.6,0,9.5,3.9,9.5,7.3
		c0,1.8-1.1,3.2-2.7,3.2c-0.8,0-1.5-0.3-2-0.8c-0.5-0.5-0.9-1.2-0.8-2.1c0-1.1,0.5-1.7,0.9-2.2c-0.7-1.3-2.2-2.3-4.5-2.3
		c-1.9,0-3.6,1-4.7,2.8c-1.2,1.8-1.9,4.3-1.9,7.3c0,3,0.7,5.5,1.9,7.3c1.2,1.8,2.9,2.8,4.8,2.8c2.3,0,3.7-1,4.5-2.3
		c-0.4-0.4-0.9-1.1-0.9-2.1c0-0.9,0.3-1.6,0.8-2.1c0.5-0.5,1.2-0.8,2-0.8c1.5,0,2.7,1.4,2.7,3.2c0,3.4-4,7.3-9.5,7.3
		C12.4,39.3,9.4,38.1,7.2,35.8 M7.2,35.8c-2.2-2.3-3.6-5.6-3.6-9.7c0-3.9,1.4-7.2,3.6-9.6c2.2-2.3,5.1-3.7,8.2-3.7
		c5.6,0,9.5,3.9,9.5,7.3c0,1.8-1.1,3.2-2.7,3.2c-0.8,0-1.5-0.3-2-0.8c-0.5-0.5-0.9-1.2-0.8-2.1c0-1.1,0.5-1.7,0.9-2.2
		c-0.7-1.3-2.2-2.3-4.5-2.3c-1.9,0-3.6,1-4.7,2.8c-1.2,1.8-1.9,4.3-1.9,7.3c0,3,0.7,5.5,1.9,7.3c1.2,1.8,2.9,2.8,4.8,2.8
		c2.3,0,3.7-1,4.5-2.3c-0.4-0.4-0.9-1.1-0.9-2.1c0-0.9,0.3-1.6,0.8-2.1c0.5-0.5,1.2-0.8,2-0.8c1.5,0,2.7,1.4,2.7,3.2
		c0,3.4-4,7.3-9.5,7.3C12.4,39.3,9.4,38.1,7.2,35.8 M7.2,35.8c-2.2-2.3-3.6-5.6-3.6-9.7c0-3.9,1.4-7.2,3.6-9.6
		c2.2-2.3,5.1-3.7,8.2-3.7c5.6,0,9.5,3.9,9.5,7.3c0,1.8-1.1,3.2-2.7,3.2c-0.8,0-1.5-0.3-2-0.8c-0.5-0.5-0.9-1.2-0.8-2.1
		c0-1.1,0.5-1.7,0.9-2.2c-0.7-1.3-2.2-2.3-4.5-2.3c-1.9,0-3.6,1-4.7,2.8c-1.2,1.8-1.9,4.3-1.9,7.3c0,3,0.7,5.5,1.9,7.3
		c1.2,1.8,2.9,2.8,4.8,2.8c2.3,0,3.7-1,4.5-2.3c-0.4-0.4-0.9-1.1-0.9-2.1c0-0.9,0.3-1.6,0.8-2.1c0.5-0.5,1.2-0.8,2-0.8
		c1.5,0,2.7,1.4,2.7,3.2c0,3.4-4,7.3-9.5,7.3C12.4,39.3,9.4,38.1,7.2,35.8 M87.6,27.1c0.4,0,0.5-0.1,0.5-0.2
		c0.1-0.1,0.1-0.4,0.1-0.7c0-1.7-1.4-3.3-3.5-3.3c-2.6,0-3.7,2.1-3.8,4.2L87.6,27.1L87.6,27.1z M35.7,30.1c-2,0-3.3,1-3.4,2.8
		c0,1.8,1.2,2.9,3.1,2.9c1.2,0,2.4-0.7,3.2-1.6v-2.6c0-0.4-0.2-0.7-0.7-1C37.5,30.3,36.7,30.1,35.7,30.1 M112,29
		c0,5,2.2,7.1,4.3,7.1c2.4,0,4.2-2.1,4.2-6.3c0-2.2-0.5-3.9-1.3-5.1c-0.8-1.2-1.9-1.8-3.1-1.8C113.6,22.9,112,25.1,112,29
		 M48.7,38.5c-0.8-0.2-1.3-0.6-1.3-1.3c0-0.3,0.1-0.5,0.2-0.8l0-0.1l0.1,0c0.3-0.1,0.8-0.2,1.2-0.6c0.5-0.4,0.6-0.9,0.6-2.4v-7.6
		c0-1.3-0.3-1.7-1.4-1.8c-0.2,0-0.5,0-0.8,0.1l-0.2,0l-0.1-0.2c-0.1-0.3-0.2-0.6-0.2-0.8c0-1.5,1.7-2.3,2.8-2.6
		c0.4-0.1,0.8-0.2,1.2-0.2c1.5,0,2.4,1.1,2.7,2.4c1-1.6,2.6-2.7,4.1-2.7c1.4,0,2.9,1,2.9,2.8c0,1.3-0.9,2.6-2.5,2.7
		c-1.1,0-2.1-0.7-2.3-1.8C55.3,23.9,54,25,54,28.7v4.6c0,1.5,0.2,2,0.7,2.4c0.4,0.3,1.3,0.5,1.6,0.6l0.1,0l0,0.1
		c0.1,0.3,0.2,0.6,0.2,0.9c0,0.6-0.5,1-1.2,1.2c-0.7,0.2-1.8,0.3-3.3,0.3C50.7,38.8,49.5,38.7,48.7,38.5 M63.9,38.5
		c-0.8-0.2-1.3-0.6-1.3-1.3c0-0.3,0.1-0.5,0.2-0.8l0-0.1l0.1,0c0.3-0.1,0.8-0.2,1.2-0.6c0.5-0.4,0.6-0.9,0.6-2.4v-7.6
		c0-1.3-0.3-1.7-1.4-1.8c-0.2,0-0.5,0-0.8,0.1l-0.2,0l-0.1-0.2c-0.1-0.3-0.2-0.6-0.2-0.8c0-1.5,1.7-2.3,2.8-2.6
		c0.4-0.1,0.9-0.2,1.2-0.2c1.5,0,2.4,1.1,2.7,2.5c1-1.6,2.6-2.7,4.1-2.7c1.4,0,2.9,1,2.9,2.8c0,1.3-0.9,2.6-2.5,2.7
		c-1.1,0-2.1-0.7-2.3-1.8c-0.9,0.3-2.1,1.4-2.1,5.1v4.6c0,1.5,0.2,2,0.7,2.4c0.4,0.3,1.3,0.5,1.6,0.6l0.1,0l0,0.1
		c0.1,0.3,0.2,0.6,0.2,0.9c0,0.6-0.5,1-1.2,1.2c-0.8,0.2-1.8,0.3-3.3,0.3C65.8,38.8,64.7,38.7,63.9,38.5 M96,38.5
		c-0.8-0.2-1.3-0.6-1.3-1.3c0-0.3,0.1-0.5,0.2-0.8l0-0.1l0.1,0c0.3-0.1,0.8-0.2,1.2-0.6c0.5-0.4,0.6-0.9,0.6-2.4v-10l-2.7-0.1l0-0.1
		c-0.1-0.3-0.2-0.6-0.2-0.9c0-1,0.8-1.6,1.7-1.6h1.2v-1.1c0-2.7,0.5-4.2,1.2-5.2c1-1.6,2.9-2.7,5.6-2.7c3.5,0,6.4,1.6,6.4,4.2
		c0,1.1-0.8,2.5-2.4,2.5c-1.2,0-2.3-1-2.4-2.3c0-0.5,0.2-1,0.4-1.3c-0.4-0.3-1.1-0.5-1.7-0.5c-1.1,0-1.7,0.4-2,1
		c-0.4,0.6-0.5,1.5-0.5,2.6v2.9h4.6l0.1,0.1c0.1,0.3,0.2,0.7,0.2,1c0,1-0.7,1.7-1.6,1.8c-0.3,0-0.7,0-1,0c-0.8,0-1.5-0.1-2.1-0.1
		v9.9c0,1.5,0.3,2,0.7,2.4c0.4,0.3,1.5,0.5,1.9,0.6l0.1,0l0,0.1c0.1,0.3,0.2,0.5,0.2,0.8c0,0.7-0.6,1.1-1.4,1.3
		c-0.9,0.2-2.1,0.3-3.6,0.3C98,38.8,96.8,38.7,96,38.5 M150.7,38.5c-0.8-0.2-1.3-0.6-1.3-1.3c0-0.3,0.1-0.5,0.2-0.8l0-0.1l0.1,0
		c0.3-0.1,0.8-0.2,1.2-0.6c0.5-0.4,0.6-0.9,0.6-2.4v-7.6c0-1.3-0.3-1.7-1.4-1.8c-0.2,0-0.5,0-0.8,0.1l-0.2,0l-0.1-0.2
		c-0.1-0.3-0.2-0.6-0.2-0.8c0-1.5,1.7-2.3,2.8-2.6c0.5-0.1,0.9-0.2,1.3-0.2c1.5,0,2.3,1.1,2.7,2.5c1-1.6,2.6-2.7,4.1-2.7
		c1.5,0,2.9,1,2.9,2.8c0,1.3-0.9,2.6-2.4,2.7c-1.1,0-2.1-0.7-2.3-1.8c-0.9,0.3-2.1,1.4-2.1,5.1v4.6c0,1.5,0.2,2,0.6,2.4
		c0.4,0.3,1.3,0.5,1.7,0.6l0.1,0l0,0.1c0.1,0.3,0.2,0.6,0.2,0.9c0,0.6-0.5,1-1.2,1.2c-0.7,0.2-1.8,0.3-3.3,0.3
		C152.7,38.8,151.5,38.7,150.7,38.5 M116.1,39.1c-2.5,0-4.9-1-6.6-2.6c-1.7-1.7-2.7-4.1-2.7-6.9c0-5.6,4.4-9.5,9.4-9.5
		c2.7,0,5,1,6.7,2.6c1.7,1.7,2.6,4,2.6,6.8c0,2.8-1,5.2-2.7,6.9C121.2,38.1,118.8,39.1,116.1,39.1L116.1,39.1z M76.1,29.9
		c0-2.8,0.9-5.3,2.6-7.1c1.6-1.7,4-2.8,6.8-2.8c2.5,0,4.4,0.9,5.6,2.3c1.2,1.3,1.8,3.1,1.8,4.7c0,0.9-0.2,1.8-0.6,2.6l-0.1,0.1H80.9
		c0.2,3.3,2.3,5.6,5.9,5.6c2.2,0,4-1.2,4.5-2l0.1-0.2l0.2,0.1c0.3,0.2,0.7,0.7,0.7,1.5c0,1.9-2.2,4.3-7.2,4.3
		C80.1,39.1,76.1,35.1,76.1,29.9 M141.2,38.3c-0.3-0.5-0.5-1-0.7-1.7c-0.2,0.2-0.4,0.4-0.7,0.7c-1.2,1.1-2.8,1.8-4.6,1.8
		c-1.9,0-3.6-0.7-4.7-2c-1.6-1.9-1.6-4.4-1.6-7.9v-3.4c0-1.4-0.5-1.8-1.7-1.9c-0.2,0-0.3,0-0.5,0l-0.2,0l-0.1-0.1
		c-0.1-0.2-0.1-0.5-0.1-0.7c0-1.6,2.1-2.5,3.3-2.7c0.4-0.1,0.8-0.1,1.2-0.1c1,0,1.7,0.3,2.2,0.9c0.5,0.6,0.6,1.3,0.6,2.3l0,5.7
		c0,2.1,0.2,3.7,0.6,4.7c0.5,1,1.2,1.5,2.5,1.5c1.4,0,2.3-0.6,2.9-1.5c0.6-0.9,0.8-2.2,0.8-3.4v-4.6c0-1.4-0.5-1.8-1.7-1.9
		c-0.2,0-0.3,0-0.5,0l-0.2,0l-0.1-0.1c-0.1-0.2-0.1-0.5-0.1-0.7c0-1.6,2.1-2.5,3.3-2.7c0.4-0.1,0.8-0.1,1.2-0.1c1,0,1.7,0.3,2.2,0.9
		c0.5,0.6,0.6,1.3,0.6,2.3c0,0.7-0.1,1.8-0.1,6.7c0,2.1,0,3.2,0,3.5c0,1.4,0.5,2,1.8,2.1c0.1,0,0.3,0,0.4,0l0.1,0l0.1,0.1
		c0.1,0.2,0.1,0.5,0.1,0.7c0,1.6-2.1,2.2-3.3,2.5c-0.4,0.1-0.8,0.1-1.1,0.1h0C142.2,39.1,141.6,38.8,141.2,38.3 M27.5,33.2
		c0-1.8,0.8-3.3,2.1-4.3c1.3-1,3.2-1.5,5.4-1.5c1.4,0,2.8,0.2,3.7,0.7v-2c0-2-0.8-3.2-3.1-3.2c-0.4,0-1.4,0.1-2.2,0.4
		c0.1,0.3,0.1,0.6,0.1,0.9c0,0.7-0.2,1.3-0.6,1.8c-0.4,0.5-1,0.7-1.8,0.7c-1.3,0-2.3-1.1-2.3-2.4c0-2.5,3-4.1,7.1-4.1
		c3.2,0,5.2,0.8,6.3,2.1c1,1.2,1,3,1,5.6v6.6c0,1.3,0.7,1.6,2.3,1.9l0.2,0l0,0.2c-0.1,1.7-1.4,2.5-2.8,2.6c-0.1,0-0.2,0-0.4,0
		c-1.4,0-2.7-0.7-3.3-2c-0.9,0.7-2.8,2.1-5.3,2.1C30.3,39.1,27.5,36.6,27.5,33.2"/>
</g>
</svg>
